<svg version="1.1" id="Layer_1" xmlns="http://www.w3.org/2000/svg" xmlns:xlink="http://www.w3.org/1999/xlink" x="0px" y="0px"
	 width="100%" viewBox="0 0 1473 791" enable-background="new 0 0 1473 791" xml:space="preserve">
<path fill="#FFFFFF" opacity="1.000000" stroke="none" 
	d="
M470.950562,1.496712 
	C646.687561,1.000000 822.375122,1.000000 998.531372,1.000000 
	C1000.335022,2.462405 1000.511475,4.282825 1000.580750,6.133911 
	C1000.655579,8.132430 1000.628052,10.132056 1000.628052,12.131231 
	C1000.629211,268.375885 1000.631653,524.620544 1000.601990,780.865173 
	C1000.601562,784.323059 1001.223999,787.882690 999.304321,791.601318 
	C990.979065,792.000000 982.958191,792.000000 974.468628,792.000000 
	C972.533630,790.386169 972.464233,788.372986 972.408936,786.364624 
	C972.349365,784.199280 972.378113,782.032837 972.378113,779.866882 
	C972.377441,630.745850 972.377380,481.624847 972.377380,332.503815 
	C972.377380,317.076080 971.931396,316.622131 956.762878,316.622070 
	C807.975098,316.621643 659.187317,316.621399 510.399506,316.622681 
	C500.628876,316.622772 500.622955,316.627899 500.622833,326.502136 
	C500.621246,478.122406 500.625732,629.742676 500.596680,781.362915 
	C500.596069,784.658813 501.175171,788.053040 499.302826,791.603760 
	C491.645752,792.000000 484.291504,792.000000 476.468628,792.000000 
	C474.533325,790.386658 474.462402,788.373718 474.409088,786.365662 
	C474.347198,784.034058 474.378418,781.701416 474.378418,779.369202 
	C474.377594,525.487366 474.370087,271.605469 474.428436,17.723619 
	C474.429718,12.134618 474.158478,6.773014 470.950562,1.496712 
z"/>
<path fill="#FFFFFF" opacity="1.000000" stroke="none" 
	d="
M1440.304443,791.598267 
	C1304.645752,792.000000 1169.291504,792.000000 1033.468628,792.000000 
	C1031.664551,790.537170 1031.486694,788.716248 1031.418945,786.864563 
	C1031.339722,784.698853 1031.372192,782.531921 1031.372192,780.365479 
	C1031.370605,535.877075 1031.370605,291.388733 1031.371216,46.900352 
	C1031.371216,33.371899 1031.373047,33.370052 1044.757446,33.370010 
	C1173.084717,33.369587 1301.411865,33.368713 1429.739136,33.371155 
	C1441.549072,33.371380 1441.627686,33.451130 1441.627808,45.399822 
	C1441.629761,290.888153 1441.631470,536.376465 1441.607422,781.864807 
	C1441.607178,784.993469 1442.123413,788.214355 1440.304443,791.598267 
z"/>
<path fill="#FFFFFF" opacity="1.000000" stroke="none" 
	d="
M442.305695,791.596252 
	C306.645782,792.000000 171.291550,792.000000 35.468658,792.000000 
	C33.664536,790.537231 33.486553,788.716309 33.418659,786.864624 
	C33.339249,784.698914 33.370979,782.531982 33.370968,780.365540 
	C33.369610,535.876648 33.369587,291.387787 33.370014,46.898926 
	C33.370037,33.371895 33.372047,33.370049 46.758739,33.369999 
	C174.919571,33.369541 303.080414,33.369110 431.241241,33.370583 
	C443.623474,33.370724 443.629364,33.375885 443.629425,45.903133 
	C443.630768,291.058655 443.632690,536.214172 443.606171,781.369690 
	C443.605804,784.659119 444.170135,788.044678 442.305695,791.596252 
z"/>
<path fill="#FFFFFF" opacity="1.000000" stroke="none" 
	d="
M940.304810,791.600708 
	C804.645752,792.000000 669.291565,792.000000 533.468628,792.000000 
	C531.664612,790.537231 531.489014,788.716309 531.418091,786.864807 
	C531.347839,785.032349 531.370728,783.198792 531.370728,781.365723 
	C531.369568,640.874329 531.369324,500.382965 531.370605,359.891602 
	C531.370728,347.376312 531.376038,347.370819 543.760681,347.370667 
	C672.252808,347.369049 800.744873,347.369049 929.237000,347.370697 
	C941.623962,347.370850 941.629211,347.376373 941.629333,359.889282 
	C941.630615,500.380646 941.634460,640.872009 941.605591,781.363403 
	C941.604858,784.657593 942.176880,788.049377 940.304810,791.600708 
z"/>
<path fill="#444446" opacity="1.000000" stroke="none" 
	d="
M442.468658,792.000000 
	C442.000000,541.726929 441.980652,291.453796 442.131348,41.180790 
	C442.134521,35.885406 440.709473,34.875530 435.670990,34.881260 
	C303.869537,35.031090 172.067856,35.024479 40.266376,34.892193 
	C35.918961,34.887833 34.887199,35.842937 34.889381,40.243855 
	C35.013603,290.516754 35.000000,540.789734 35.000000,791.531372 
	C24.503544,792.000000 14.006090,791.924377 3.511469,792.063110 
	C1.386804,792.091248 0.559656,791.687439 0.975253,789.507629 
	C1.128514,788.703735 1.000000,787.846252 1.000000,787.013184 
	C1.000000,526.601135 1.011478,266.189056 0.893214,5.777050 
	C0.891400,1.783675 1.605358,0.881058 5.719893,0.884688 
	C160.500748,1.021233 315.281708,1.000000 470.531342,1.000000 
	C475.365875,4.346700 476.114288,8.774755 476.111664,14.124984 
	C475.983917,273.104187 476.000000,532.083435 476.000000,791.531372 
	C464.979095,792.000000 453.958221,792.000000 442.468658,792.000000 
z"/>
<path fill="#444446" opacity="1.000000" stroke="none" 
	d="
M1440.468628,792.000000 
	C1440.000000,541.726929 1439.980713,291.453857 1440.131470,41.180878 
	C1440.134644,35.885483 1438.709595,34.875538 1433.671021,34.881264 
	C1301.869507,35.031090 1170.067993,35.024471 1038.266479,34.892220 
	C1033.919434,34.887859 1032.887207,35.842464 1032.889404,40.243721 
	C1033.013550,290.516663 1033.000000,540.789673 1033.000000,791.531372 
	C1021.979126,792.000000 1010.958191,792.000000 999.468628,792.000000 
	C999.000000,528.645752 999.000000,265.291534 999.000000,1.468657 
	C1155.354248,1.000000 1311.708496,1.000000 1468.531372,1.000000 
	C1470.976196,2.032929 1473.130005,2.884639 1473.786377,5.741030 
	C1474.000000,266.527588 1473.988770,527.055176 1474.105225,787.582703 
	C1474.107056,791.512207 1473.034058,792.197388 1469.419434,792.092712 
	C1459.932373,791.817993 1450.432251,792.000000 1440.468628,792.000000 
z"/>
<path fill="#444446" opacity="1.000000" stroke="none" 
	d="
M940.468628,792.000000 
	C940.000000,646.218872 939.968933,500.437683 940.132080,354.656708 
	C940.137634,349.670227 938.768250,348.884583 934.147888,348.889404 
	C802.195251,349.026611 670.242493,349.023163 538.289856,348.896576 
	C534.000427,348.892456 532.880005,349.760620 532.884277,354.219299 
	C533.024475,499.833649 533.000000,645.448181 533.000000,791.531372 
	C521.979126,792.000000 510.958221,792.000000 499.468658,792.000000 
	C499.000000,635.044373 499.020966,478.088745 498.898407,321.133240 
	C498.894714,316.438660 499.564301,314.846222 504.876251,314.852570 
	C657.832764,315.035187 810.789551,314.999847 963.746338,315.000397 
	C970.969910,315.000427 973.999512,318.012207 973.999573,325.194427 
	C974.000183,480.483856 974.000000,635.773254 974.000000,791.531372 
	C962.979126,792.000000 951.958191,792.000000 940.468628,792.000000 
z"/>
<path fill="#444446" opacity="1.000000" stroke="none" 
	d="
M1474.000000,5.500042 
	C1472.385986,4.561435 1470.771851,3.122862 1469.078857,1.342144 
	C1471.694946,1.047957 1475.234497,0.040387 1474.000000,5.500042 
z"/>
<path fill="#444446" opacity="1.000000" stroke="none" 
	d="
M1119.000000,100.000000 
	C1104.668701,99.999992 1090.835815,99.890984 1077.007080,100.080254 
	C1073.742676,100.124939 1072.844360,99.262627 1072.919067,95.992714 
	C1073.143677,86.165924 1073.106812,76.328827 1072.932861,66.499992 
	C1072.882690,63.660931 1073.701904,62.932716 1076.512817,62.938393 
	C1120.173096,63.026581 1163.833496,63.026897 1207.493774,62.937885 
	C1210.314819,62.932137 1211.116211,63.677841 1211.066650,66.506622 
	C1210.894287,76.335518 1210.854370,86.172661 1211.081787,95.999313 
	C1211.157715,99.282013 1210.233887,100.091049 1206.987061,100.076462 
	C1177.825195,99.945511 1148.662476,100.000000 1119.000000,100.000000 
z"/>
<path fill="#444446" opacity="1.000000" stroke="none" 
	d="
M1130.000000,563.000000 
	C1155.829712,563.000000 1181.160034,563.088074 1206.488403,562.903381 
	C1210.214478,562.876282 1211.218262,563.741699 1211.100708,567.503479 
	C1210.799316,577.159302 1210.892578,586.832825 1211.066650,596.494934 
	C1211.117798,599.326294 1210.310913,600.067688 1207.492188,600.061951 
	C1163.831909,599.973145 1120.171509,599.973328 1076.511230,600.061707 
	C1073.697754,600.067444 1072.882935,599.334900 1072.932983,596.498413 
	C1073.106689,586.669556 1073.144165,576.832458 1072.918945,567.005676 
	C1072.843994,563.732727 1073.749146,562.889648 1077.008301,562.920837 
	C1094.504150,563.088501 1112.002563,563.000000 1130.000000,563.000000 
z"/>
<path fill="#444446" opacity="1.000000" stroke="none" 
	d="
M1157.000000,626.000000 
	C1173.997681,626.000000 1190.496216,626.093323 1206.992065,625.920471 
	C1210.252808,625.886353 1211.155884,626.734192 1211.081055,630.006104 
	C1210.855957,639.832886 1210.893433,649.669983 1211.067139,659.498840 
	C1211.117310,662.336121 1210.301025,663.067383 1207.488281,663.061646 
	C1163.828003,662.973328 1120.167725,662.973145 1076.507446,663.062073 
	C1073.688110,663.067810 1072.883423,662.325134 1072.933228,659.494568 
	C1073.105835,649.665649 1073.145264,639.828552 1072.918335,630.001892 
	C1072.842651,626.721497 1073.762207,625.906189 1077.011719,625.922974 
	C1103.507202,626.059814 1130.003784,626.000000 1157.000000,626.000000 
z"/>
<path fill="#444446" opacity="1.000000" stroke="none" 
	d="
M1152.000000,163.000000 
	C1126.836914,163.000000 1102.172974,162.909698 1077.511353,163.096741 
	C1073.784668,163.125000 1072.781860,162.257492 1072.899292,158.496262 
	C1073.200562,148.840393 1073.107544,139.166916 1072.933350,129.504791 
	C1072.882324,126.672966 1073.689819,125.932312 1076.508057,125.938042 
	C1120.168335,126.026825 1163.828735,126.026672 1207.489014,125.938255 
	C1210.302734,125.932556 1211.117065,126.665634 1211.067017,129.501816 
	C1210.893433,139.330673 1210.855835,149.167786 1211.081177,158.994522 
	C1211.156250,162.267990 1210.249878,163.108536 1206.991455,163.079025 
	C1188.828857,162.914505 1170.664062,163.000000 1152.000000,163.000000 
z"/>
<path fill="#444446" opacity="1.000000" stroke="none" 
	d="
M1204.911865,688.000000 
	C1209.721802,687.263794 1211.353516,688.654663 1211.128784,693.417908 
	C1210.689697,702.729797 1210.904785,712.078613 1211.059570,721.408691 
	C1211.104370,724.111450 1210.533325,725.075134 1207.578247,725.068420 
	C1163.915161,724.969055 1120.251831,724.976868 1076.588623,725.055725 
	C1073.888916,725.060608 1072.870239,724.535156 1072.926880,721.575073 
	C1073.118652,711.579529 1073.250366,701.568726 1072.879883,691.583252 
	C1072.726440,687.445862 1074.903931,687.984131 1077.433105,687.985779 
	C1110.097290,688.007202 1142.761353,688.000000 1175.425537,688.000000 
	C1185.091431,688.000000 1194.757446,688.000000 1204.911865,688.000000 
z"/>
<path fill="#444446" opacity="1.000000" stroke="none" 
	d="
M1186.000000,751.000000 
	C1193.665649,751.000061 1200.833374,751.097961 1207.995728,750.945496 
	C1210.406250,750.894226 1211.082886,751.610107 1211.053711,754.009277 
	C1210.927734,764.339600 1210.832031,774.676331 1211.081787,785.002197 
	C1211.182739,789.181824 1208.494019,787.967529 1206.484375,787.969604 
	C1166.656738,788.010437 1126.829224,788.007019 1087.001587,787.990234 
	C1082.524902,787.988342 1076.532715,789.577759 1073.968750,787.325989 
	C1070.998535,784.717285 1073.164673,778.586792 1073.041016,773.992004 
	C1072.875244,767.830688 1073.260376,761.646423 1072.903931,755.501282 
	C1072.684570,751.719177 1073.801392,750.889587 1077.515869,750.905823 
	C1113.510132,751.062622 1149.505127,751.000000 1186.000000,751.000000 
z"/>
<path fill="#444446" opacity="1.000000" stroke="none" 
	d="
M1073.000000,454.002441 
	C1073.073486,448.526398 1071.222534,441.831360 1073.727661,439.025635 
	C1076.592896,435.816650 1083.414551,438.052734 1088.505127,438.042725 
	C1127.832764,437.965210 1167.160889,438.058014 1206.488159,437.905640 
	C1210.210693,437.891235 1211.218384,438.740051 1211.100830,442.503021 
	C1210.799072,452.158905 1210.892578,461.832458 1211.066772,471.494659 
	C1211.117798,474.325714 1210.311401,475.067780 1207.492432,475.062012 
	C1163.832031,474.973175 1120.171387,474.973358 1076.510986,475.061768 
	C1073.697266,475.067444 1072.823364,474.339874 1072.934570,471.496704 
	C1073.155762,465.839508 1073.000000,460.167542 1073.000000,454.002441 
z"/>
<path fill="#444446" opacity="1.000000" stroke="none" 
	d="
M1211.000000,390.006256 
	C1211.000000,396.503845 1210.737671,402.518707 1211.095215,408.496521 
	C1211.321289,412.275085 1210.204224,413.108093 1206.486084,413.093994 
	C1166.658691,412.942932 1126.830566,413.007019 1087.002563,412.990295 
	C1082.525757,412.988403 1076.533813,414.578125 1073.969116,412.326447 
	C1070.998169,409.718048 1073.164795,403.587341 1073.041016,398.992645 
	C1072.875122,392.831268 1073.260254,386.646973 1072.904053,380.501770 
	C1072.684814,376.720490 1073.800537,375.891663 1077.515503,375.906128 
	C1116.509644,376.058044 1155.504639,376.000000 1194.499390,376.000000 
	C1195.499268,376.000000 1196.499390,375.986450 1197.499023,376.002350 
	C1201.808960,376.071014 1207.574463,374.488129 1210.048218,376.656769 
	C1212.923096,379.177277 1210.671509,385.085327 1211.000000,390.006256 
z"/>
<path fill="#444446" opacity="1.000000" stroke="none" 
	d="
M1073.000000,284.835236 
	C1073.000000,274.348877 1073.066528,264.348785 1072.952393,254.350784 
	C1072.924561,251.907166 1073.365356,250.926208 1076.161987,250.932373 
	C1119.992065,251.029053 1163.822632,251.017029 1207.652832,250.955154 
	C1210.098877,250.951691 1211.122437,251.368149 1211.072021,254.166275 
	C1210.889160,264.328979 1210.930908,274.497711 1211.049561,284.662323 
	C1211.078247,287.130280 1210.595825,288.072174 1207.824829,288.066193 
	C1163.994629,287.971771 1120.164307,287.994507 1076.333984,288.017578 
	C1074.393921,288.018585 1072.510864,288.207672 1073.000000,284.835236 
z"/>
<path fill="#444446" opacity="1.000000" stroke="none" 
	d="
M1077.137207,188.000000 
	C1120.120117,188.000000 1162.618408,188.120987 1205.114136,187.846573 
	C1210.414551,187.812347 1211.318726,189.391830 1211.108765,194.131729 
	C1210.725830,202.780914 1210.833252,211.463943 1211.078979,220.123123 
	C1211.182739,223.781418 1210.514648,225.128922 1206.362183,225.111435 
	C1163.365479,224.930222 1120.367676,224.961365 1077.370605,225.075775 
	C1074.049683,225.084610 1072.792236,224.548370 1072.901367,220.855408 
	C1073.191650,211.031235 1073.131104,201.190048 1072.922485,191.361725 
	C1072.857422,188.296066 1074.040283,187.604630 1077.137207,188.000000 
z"/>
<path fill="#444446" opacity="1.000000" stroke="none" 
	d="
M1082.037720,313.000000 
	C1123.695435,313.000000 1164.857422,313.072021 1206.018311,312.890594 
	C1210.217529,312.872070 1211.257202,313.903259 1211.108276,318.034027 
	C1210.766113,327.520538 1210.885498,337.030060 1211.069214,346.525330 
	C1211.124878,349.405334 1210.233521,350.065002 1207.461426,350.059631 
	C1163.800171,349.974640 1120.138794,349.971802 1076.477539,350.064331 
	C1073.611816,350.070404 1072.885254,349.249695 1072.935913,346.464539 
	C1073.105103,337.135406 1073.284912,327.788910 1072.879272,318.474335 
	C1072.677734,313.841827 1074.095093,312.224426 1078.546143,312.975983 
	C1079.518311,313.140106 1080.541870,313.000000 1082.037720,313.000000 
z"/>
<path fill="#444446" opacity="1.000000" stroke="none" 
	d="
M1195.995972,501.000000 
	C1201.250244,501.353149 1207.611328,498.903259 1210.310181,501.984406 
	C1212.643677,504.648315 1210.962524,510.860016 1210.991089,515.503845 
	C1211.027832,521.502747 1210.738037,527.517700 1211.095093,533.495544 
	C1211.320679,537.271912 1210.207397,538.108459 1206.487061,538.094177 
	C1166.993164,537.942322 1127.498535,538.007507 1088.004028,537.990295 
	C1083.193848,537.988220 1076.737427,539.711182 1074.006348,537.291260 
	C1070.867920,534.510559 1073.188354,527.922424 1073.041016,522.994446 
	C1072.866577,517.167114 1073.265015,511.314270 1072.905396,505.503998 
	C1072.671631,501.725647 1073.794678,500.891510 1077.513550,500.905853 
	C1116.840820,501.057770 1156.168823,501.000000 1195.995972,501.000000 
z"/>
<path fill="#444446" opacity="1.000000" stroke="none" 
	d="
M1293.000000,350.000000 
	C1283.501343,349.999969 1274.500244,349.886292 1265.505249,350.066681 
	C1262.673340,350.123444 1261.885498,349.316437 1261.933594,346.491241 
	C1262.104004,336.495575 1262.105957,326.493439 1261.932739,316.497864 
	C1261.883545,313.655518 1262.707397,312.932861 1265.515015,312.938568 
	C1308.841919,313.026672 1352.168945,313.027191 1395.495850,312.937714 
	C1398.320068,312.931885 1399.115845,313.683197 1399.066406,316.508728 
	C1398.894653,326.337646 1398.853760,336.174774 1399.082031,346.001404 
	C1399.158325,349.288208 1398.227417,350.087402 1394.985107,350.075653 
	C1361.156982,349.952942 1327.328491,350.000000 1293.000000,350.000000 
z"/>
<path fill="#444446" opacity="1.000000" stroke="none" 
	d="
M1360.000000,63.000000 
	C1372.165039,63.000019 1383.831177,63.091999 1395.494141,62.933796 
	C1398.321777,62.895439 1399.114502,63.680729 1399.066406,66.507622 
	C1398.895752,76.503258 1398.894409,86.505417 1399.067139,96.500984 
	C1399.116333,99.341431 1398.295654,100.067268 1395.486206,100.061546 
	C1352.159302,99.973259 1308.832153,99.972862 1265.505249,100.062218 
	C1262.682739,100.068039 1261.884033,99.319603 1261.933594,96.492416 
	C1262.105591,86.663513 1262.145874,76.826370 1261.918091,66.999741 
	C1261.841919,63.715027 1262.769165,62.910671 1266.013916,62.923908 
	C1297.175415,63.051033 1328.337891,63.000004 1360.000000,63.000000 
z"/>
<path fill="#444446" opacity="1.000000" stroke="none" 
	d="
M1337.000000,788.000000 
	C1313.170044,788.000000 1289.839355,787.904846 1266.510986,788.097107 
	C1262.782837,788.127808 1261.782104,787.256042 1261.899414,783.495789 
	C1262.200439,773.839844 1262.107544,764.166382 1261.933228,754.504272 
	C1261.882202,751.671692 1262.691040,750.932251 1265.508545,750.938049 
	C1308.835449,751.026978 1352.162598,751.026917 1395.489502,750.938232 
	C1398.304077,750.932434 1399.116821,751.666992 1399.066895,754.502380 
	C1398.893433,764.331238 1398.855713,774.168335 1399.081299,783.995056 
	C1399.156494,787.269348 1398.248291,788.105957 1394.991089,788.078796 
	C1375.828491,787.918640 1356.663940,788.000000 1337.000000,788.000000 
z"/>
<path fill="#444446" opacity="1.000000" stroke="none" 
	d="
M1399.000000,709.996094 
	C1398.646729,715.250305 1401.096924,721.611450 1398.015503,724.310242 
	C1395.351440,726.643677 1389.139771,724.988403 1384.496216,724.990356 
	C1345.168335,725.007324 1305.840332,724.942139 1266.513062,725.094177 
	C1262.793091,725.108582 1261.781128,724.263794 1261.899048,720.498230 
	C1262.201416,710.842407 1262.107178,701.168823 1261.933350,691.506714 
	C1261.882446,688.677734 1262.685059,687.932068 1265.506226,687.937866 
	C1308.833374,688.027100 1352.160645,688.026794 1395.487793,687.938293 
	C1398.299683,687.932495 1399.169067,688.657532 1399.066040,691.501831 
	C1398.848999,697.493103 1399.000000,703.497742 1399.000000,709.996094 
z"/>
<path fill="#444446" opacity="1.000000" stroke="none" 
	d="
M1262.000000,406.911682 
	C1262.000000,397.590576 1262.095459,388.756287 1261.943848,379.926270 
	C1261.896118,377.146973 1262.201172,375.899872 1265.586914,375.910461 
	C1308.916504,376.046234 1352.246704,376.031097 1395.576416,375.931702 
	C1398.528564,375.924927 1399.100098,376.884552 1399.059570,379.589417 
	C1398.909668,389.586395 1398.879883,399.589294 1399.073853,409.584747 
	C1399.131470,412.560608 1398.087769,413.059845 1395.401733,413.054993 
	C1352.238525,412.977081 1309.074707,412.903076 1265.912476,413.124084 
	C1260.590332,413.151337 1262.210571,410.030609 1262.000000,406.911682 
z"/>
<path fill="#444446" opacity="1.000000" stroke="none" 
	d="
M1370.000000,225.000000 
	C1335.171631,225.000000 1300.842896,224.934387 1266.515381,225.094482 
	C1262.799438,225.111786 1261.780273,224.270737 1261.898804,220.500488 
	C1262.202271,210.844772 1262.106689,201.171234 1261.933594,191.509064 
	C1261.883057,188.683945 1262.678955,187.931839 1265.503784,187.937668 
	C1308.830688,188.027222 1352.157837,188.026657 1395.484741,187.938553 
	C1398.291992,187.932846 1399.116455,188.654846 1399.067139,191.497528 
	C1398.893921,201.493088 1398.896118,211.495239 1399.066284,221.490891 
	C1399.114502,224.315460 1398.328369,225.130447 1395.494995,225.066727 
	C1387.166992,224.879425 1378.832153,224.999969 1370.000000,225.000000 
z"/>
<path fill="#444446" opacity="1.000000" stroke="none" 
	d="
M1315.000000,501.000000 
	C1341.829468,501.000000 1368.159668,501.084839 1394.487915,500.903687 
	C1398.212402,500.878113 1399.218262,501.739990 1399.100708,505.502991 
	C1398.798828,515.158813 1398.892578,524.832275 1399.066650,534.494385 
	C1399.117676,537.325012 1398.312134,538.067871 1395.492676,538.062073 
	C1352.165771,537.972961 1308.838623,537.973145 1265.511719,538.061707 
	C1262.699097,538.067444 1261.884033,537.336121 1261.932983,534.498962 
	C1262.105225,524.503418 1262.104492,514.501282 1261.933350,504.505615 
	C1261.884888,501.675507 1262.685303,500.911926 1265.507568,500.934967 
	C1281.837402,501.068237 1298.169067,501.000031 1315.000000,501.000000 
z"/>
<path fill="#444446" opacity="1.000000" stroke="none" 
	d="
M1399.000000,646.997681 
	C1398.926514,652.473633 1400.777344,659.168884 1398.272217,661.974304 
	C1395.406860,665.183350 1388.585327,662.947144 1383.494751,662.957336 
	C1344.500488,663.035095 1305.505615,662.941467 1266.511719,663.094421 
	C1262.788818,663.109009 1261.781616,662.259644 1261.899170,658.496887 
	C1262.200928,648.841003 1262.107300,639.167480 1261.933228,629.505310 
	C1261.882202,626.674316 1262.688477,625.932129 1265.507568,625.937927 
	C1308.834717,626.027039 1352.161987,626.026917 1395.489136,625.938232 
	C1398.303101,625.932495 1399.176636,626.660400 1399.065430,629.503357 
	C1398.844360,635.160583 1399.000000,640.832520 1399.000000,646.997681 
z"/>
<path fill="#444446" opacity="1.000000" stroke="none" 
	d="
M1316.000000,438.000000 
	C1342.496216,438.000000 1368.493042,438.085907 1394.487915,437.903625 
	C1398.212769,437.877563 1399.218262,438.740356 1399.100586,442.503113 
	C1398.798950,452.158936 1398.892578,461.832428 1399.066650,471.494568 
	C1399.117798,474.325378 1398.311768,475.067871 1395.492554,475.062073 
	C1352.165649,474.972992 1308.838501,474.973175 1265.511597,475.061737 
	C1262.698853,475.067505 1261.884033,474.335846 1261.932983,471.498810 
	C1262.105347,461.503204 1262.104492,451.501068 1261.933228,441.505432 
	C1261.884766,438.675110 1262.685791,437.912720 1265.507690,437.935059 
	C1282.171021,438.066986 1298.835693,438.000031 1316.000000,438.000000 
z"/>
<path fill="#444446" opacity="1.000000" stroke="none" 
	d="
M1305.000000,600.000000 
	C1291.668579,600.000000 1278.835205,599.883728 1266.006836,600.080566 
	C1262.740845,600.130676 1261.844238,599.261414 1261.919067,595.992371 
	C1262.143433,586.165588 1262.106934,576.328491 1261.932861,566.499634 
	C1261.882690,563.660156 1262.702759,562.932617 1265.513184,562.938354 
	C1308.840088,563.026733 1352.167236,563.027100 1395.494141,562.937805 
	C1398.315796,562.932007 1399.116089,563.678772 1399.066528,566.506958 
	C1398.894287,576.335876 1398.854370,586.172974 1399.081909,595.999634 
	C1399.157959,599.283020 1398.232910,600.090515 1394.986694,600.076416 
	C1365.158325,599.946777 1335.328979,600.000000 1305.000000,600.000000 
z"/>
<path fill="#444446" opacity="1.000000" stroke="none" 
	d="
M1392.911621,251.000000 
	C1397.721191,250.263962 1399.353516,251.654129 1399.128906,256.417603 
	C1398.689819,265.729523 1398.904907,275.078339 1399.059570,284.408386 
	C1399.104492,287.110870 1398.534058,288.075256 1395.578491,288.068451 
	C1352.248779,287.968781 1308.918701,287.976685 1265.588867,288.055695 
	C1262.889526,288.060638 1261.870117,287.535828 1261.926880,284.575317 
	C1262.118652,274.579773 1262.250244,264.569000 1261.879883,254.583496 
	C1261.726440,250.446609 1263.903442,250.984131 1266.432861,250.985779 
	C1299.430298,251.007187 1332.427734,251.000000 1365.425171,251.000000 
	C1374.424438,251.000000 1383.423828,251.000000 1392.911621,251.000000 
z"/>
<path fill="#444446" opacity="1.000000" stroke="none" 
	d="
M1385.990479,126.000000 
	C1390.576416,126.360664 1396.024292,124.159607 1398.379028,126.908455 
	C1400.375366,129.238754 1398.968872,134.521454 1398.990234,138.498108 
	C1399.026123,145.163681 1398.752197,151.842422 1399.096436,158.490356 
	C1399.291138,162.251892 1398.225342,163.109711 1394.492920,163.095062 
	C1355.332153,162.941177 1316.170532,163.036362 1277.009399,162.954224 
	C1272.086060,162.943893 1265.494385,165.131683 1262.712158,161.996506 
	C1260.291504,159.268768 1262.039795,152.810776 1262.008911,148.000732 
	C1261.971313,142.168427 1262.262939,136.319565 1261.906128,130.508926 
	C1261.674561,126.741203 1262.779297,125.890846 1266.508545,125.905212 
	C1306.169189,126.057922 1345.830811,126.000000 1385.990479,126.000000 
z"/>
<path fill="#444446" opacity="1.000000" stroke="none" 
	d="
M163.000000,313.000000 
	C178.664505,313.000000 193.830200,313.100586 208.992569,312.920074 
	C212.255081,312.881256 213.155792,313.735962 213.080963,317.006775 
	C212.856155,326.833557 212.893082,336.670654 213.066986,346.499512 
	C213.117203,349.337830 212.299286,350.067261 209.487640,350.061615 
	C165.494095,349.973602 121.500275,349.973328 77.506729,350.062073 
	C74.686447,350.067749 73.883827,349.323395 73.933472,346.493896 
	C74.105919,336.664978 74.145531,326.827850 73.918297,317.001160 
	C73.842407,313.719269 74.764717,312.908020 78.012512,312.923340 
	C106.174500,313.056366 134.337387,313.000000 163.000000,313.000000 
z"/>
<path fill="#444446" opacity="1.000000" stroke="none" 
	d="
M184.000000,475.000000 
	C148.505005,475.000000 113.509720,474.935547 78.515442,475.094360 
	C74.799797,475.111237 73.780159,474.270996 73.898697,470.500580 
	C74.202286,460.844818 74.106834,451.171265 73.933693,441.509094 
	C73.883072,438.684021 74.678940,437.932007 77.503792,437.937744 
	C121.497314,438.026855 165.491119,438.026276 209.484665,437.938599 
	C212.291733,437.933014 213.116501,438.654663 213.067230,441.497467 
	C212.893997,451.493042 212.896011,461.495239 213.066269,471.490906 
	C213.114380,474.315552 212.328369,475.130463 209.494934,475.066711 
	C201.167007,474.879456 192.832138,475.000000 184.000000,475.000000 
z"/>
<path fill="#444446" opacity="1.000000" stroke="none" 
	d="
M95.000137,376.000000 
	C133.161423,376.000000 170.822968,376.059937 208.483643,375.906097 
	C212.196976,375.890930 213.220245,376.725983 213.101440,380.498474 
	C212.797348,390.154175 212.893326,399.827789 213.066223,409.489960 
	C213.116760,412.313568 212.323486,413.068115 209.497208,413.062378 
	C165.503662,412.973145 121.509811,412.973816 77.516258,413.061371 
	C74.710556,413.066956 73.883354,412.347626 73.932701,409.503418 
	C74.106163,399.507843 74.103836,389.505646 73.933807,379.509979 
	C73.885788,376.686676 74.665329,375.823975 77.505249,375.934723 
	C83.162468,376.155212 88.834343,376.000031 95.000137,376.000000 
z"/>
<path fill="#444446" opacity="1.000000" stroke="none" 
	d="
M147.000000,501.000000 
	C167.997070,501.000000 188.494720,501.076416 208.990616,500.921600 
	C212.246384,500.897003 213.156525,501.729156 213.081253,505.004456 
	C212.855453,514.831238 212.893494,524.668335 213.066803,534.497253 
	C213.116791,537.331970 212.305069,538.067444 209.489929,538.061768 
	C165.496384,537.973450 121.502563,537.973450 77.509026,538.061890 
	C74.692322,538.067566 73.883392,537.329285 73.933273,534.496216 
	C74.106331,524.667358 74.144829,514.830139 73.918594,505.003418 
	C73.843140,501.726074 74.757187,500.901276 78.010345,500.922211 
	C100.839455,501.069031 123.669945,501.000000 147.000000,501.000000 
z"/>
<path fill="#444446" opacity="1.000000" stroke="none" 
	d="
M121.000000,563.000000 
	C150.495850,563.000000 179.492172,563.077332 208.487000,562.904358 
	C212.208878,562.882141 213.218826,563.736938 213.100952,567.502014 
	C212.798645,577.157837 212.892700,586.831360 213.066528,596.493469 
	C213.117432,599.322693 212.314423,600.067810 209.493607,600.062073 
	C165.500076,599.973328 121.506256,599.973633 77.512718,600.061646 
	C74.701607,600.067261 73.883987,599.338562 73.932991,596.499878 
	C74.105545,586.504272 74.104446,576.502136 73.933510,566.506470 
	C73.885139,563.677673 74.682472,562.906494 77.506866,562.934509 
	C91.836716,563.076843 106.168739,563.000061 121.000000,563.000000 
z"/>
<path fill="#444446" opacity="1.000000" stroke="none" 
	d="
M209.835281,662.999878 
	C165.851212,663.000000 122.354027,662.956726 78.857315,663.078064 
	C75.174698,663.088318 73.732788,662.478333 73.885963,658.341003 
	C74.243324,648.688232 74.069366,639.012329 73.951935,629.347778 
	C73.922165,626.898499 74.374367,625.926636 77.165031,625.932678 
	C121.328506,626.028625 165.492279,626.017090 209.655869,625.954712 
	C212.107468,625.951233 213.120331,626.377380 213.071594,629.169312 
	C212.891266,639.498779 212.951279,649.833679 213.040558,660.165527 
	C213.058487,662.239624 212.617355,663.380310 209.835281,662.999878 
z"/>
<path fill="#444446" opacity="1.000000" stroke="none" 
	d="
M105.000000,725.000000 
	C95.501289,725.000000 86.500298,724.886169 77.505203,725.066650 
	C74.673088,725.123413 73.885574,724.316284 73.933716,721.491150 
	C74.104034,711.495483 74.105972,701.493347 73.932800,691.497742 
	C73.883560,688.655334 74.707611,687.932983 77.515060,687.938538 
	C121.508583,688.026245 165.502396,688.026794 209.495911,687.937744 
	C212.320312,687.932007 213.116959,688.683289 213.066315,691.508789 
	C212.893112,701.171021 212.797806,710.844482 213.101257,720.500244 
	C213.219727,724.270081 212.201126,725.111877 208.484833,725.094543 
	C174.157150,724.934387 139.828430,725.000000 105.000000,725.000000 
z"/>
<path fill="#444446" opacity="1.000000" stroke="none" 
	d="
M212.597107,787.605835 
	C167.420944,787.962463 122.589874,787.947021 77.759216,788.074768 
	C74.675232,788.083557 73.851601,787.350586 73.919128,784.245056 
	C74.136436,774.250244 74.092239,764.246277 73.938049,754.249084 
	C73.897385,751.612366 74.663567,750.939514 77.264244,750.944092 
	C121.428917,751.022217 165.593811,751.023743 209.758469,750.941345 
	C212.402191,750.936401 213.095016,751.678589 213.058121,754.271667 
	C212.901611,765.268799 212.961472,776.268982 212.597107,787.605835 
z"/>
<path fill="#444446" opacity="1.000000" stroke="none" 
	d="
M74.394073,224.597076 
	C74.037560,213.252792 74.101608,202.252518 73.939735,191.255554 
	C73.901115,188.631699 74.644485,187.938614 77.257660,187.943298 
	C121.422348,188.022705 165.587250,188.023331 209.751923,187.942123 
	C212.383270,187.937286 213.098419,188.659439 213.059830,191.265121 
	C212.911774,201.262512 212.858582,211.266571 213.083145,221.261124 
	C213.153671,224.399918 212.276093,225.081009 209.224655,225.072525 
	C164.393951,224.947845 119.562874,224.961517 74.394073,224.597076 
z"/>
<path fill="#444446" opacity="1.000000" stroke="none" 
	d="
M167.000000,100.000000 
	C137.170868,100.000000 107.841270,99.923462 78.513145,100.095573 
	C74.791595,100.117401 73.781143,99.263474 73.899055,95.498169 
	C74.201416,85.842354 74.107269,76.168823 73.933495,66.506668 
	C73.882622,63.677788 74.685104,62.932198 77.506203,62.937893 
	C121.499733,63.026695 165.493546,63.026386 209.487076,62.938416 
	C212.297867,62.932800 213.116058,63.660892 213.067032,66.499908 
	C212.894424,76.495491 212.895599,86.497673 213.066452,96.493317 
	C213.114807,99.321724 212.318268,100.094688 209.493332,100.065613 
	C195.496811,99.921532 181.498001,99.999977 167.000000,100.000000 
z"/>
<path fill="#444446" opacity="1.000000" stroke="none" 
	d="
M150.000000,288.000000 
	C125.836723,288.000000 102.172684,287.906097 78.510948,288.097046 
	C74.782936,288.127136 73.782127,287.255951 73.899399,283.495758 
	C74.200523,273.839874 74.107689,264.166382 73.933289,254.504257 
	C73.882164,251.671631 74.691208,250.932419 77.508614,250.938080 
	C121.502136,251.026596 165.495941,251.026489 209.489471,250.938232 
	C212.303925,250.932587 213.116867,251.666855 213.066833,254.502304 
	C212.893417,264.331177 212.855621,274.168304 213.081207,283.995056 
	C213.156372,287.269440 212.248077,288.105194 208.991058,288.078674 
	C189.495117,287.919922 169.997238,288.000000 150.000000,288.000000 
z"/>
<path fill="#444446" opacity="1.000000" stroke="none" 
	d="
M204.947739,126.000000 
	C212.999985,126.000053 213.000000,126.000053 213.000000,133.450577 
	C213.000000,142.116409 212.892044,150.784378 213.062744,159.446854 
	C213.117126,162.206299 212.433563,163.071838 209.539932,163.065613 
	C165.544342,162.971085 121.548454,162.975449 77.552826,163.058487 
	C74.801620,163.063675 73.875359,162.441910 73.929771,159.539551 
	C74.114044,149.710617 74.218948,139.868790 73.891502,130.047318 
	C73.761826,126.157822 75.328094,125.929710 78.468178,125.938179 
	C114.464470,126.035278 150.461105,126.000000 186.457657,126.000000 
	C192.457077,126.000000 198.456512,126.000000 204.947739,126.000000 
z"/>
<path fill="#444446" opacity="1.000000" stroke="none" 
	d="
M376.000000,563.000000 
	C383.998932,563.000061 391.499725,563.094666 398.995667,562.945557 
	C401.405365,562.897583 402.082855,563.609680 402.053589,566.009155 
	C401.927612,576.339478 401.831970,586.676147 402.081696,597.002014 
	C402.182770,601.181519 399.494232,599.967529 397.484497,599.969543 
	C357.656921,600.010376 317.829346,600.007019 278.001740,599.990295 
	C273.525024,599.988403 267.532776,601.577820 264.968811,599.326050 
	C261.998718,596.717529 264.164612,590.586853 264.041046,585.992126 
	C263.875366,579.830811 264.260223,573.646606 263.903900,567.501465 
	C263.684631,563.719666 264.800964,562.889404 268.515808,562.905823 
	C304.176636,563.063232 339.838470,563.000000 376.000000,563.000000 
z"/>
<path fill="#444446" opacity="1.000000" stroke="none" 
	d="
M402.000000,139.008987 
	C402.000000,145.840332 401.742188,152.187286 402.096771,158.499832 
	C402.309296,162.283524 401.195068,163.107391 397.483093,163.093536 
	C357.322510,162.943710 317.161133,163.006500 277.000000,162.990234 
	C272.856750,162.988556 267.313324,164.446442 264.936279,162.359940 
	C262.167389,159.929428 264.128754,154.252075 264.036743,149.990250 
	C263.896484,143.494171 264.255280,136.978928 263.902588,130.499023 
	C263.696594,126.713760 264.807983,125.892296 268.517944,125.906525 
	C307.845306,126.057312 347.173431,126.000000 386.501373,126.000000 
	C387.501221,126.000000 388.501343,125.985382 389.500916,126.002571 
	C393.477478,126.070953 398.759827,124.624077 401.091064,126.620193 
	C403.840790,128.974640 401.638916,134.422638 402.000000,139.008987 
z"/>
<path fill="#444446" opacity="1.000000" stroke="none" 
	d="
M305.000000,626.000000 
	C336.162262,626.000000 366.824890,626.073303 397.486237,625.904785 
	C401.206207,625.884338 402.219055,626.734558 402.100983,630.501221 
	C401.798279,640.156982 401.892853,649.830505 402.066467,659.492615 
	C402.117279,662.320435 401.316650,663.067993 398.494476,663.062195 
	C354.834290,662.973083 311.173767,662.973450 267.513580,663.061523 
	C264.703766,663.067200 263.883850,662.340698 263.932953,659.500732 
	C264.105713,649.505188 264.104309,639.502991 263.933624,629.507385 
	C263.885315,626.679993 264.679291,625.898804 267.506165,625.934021 
	C279.835785,626.087708 292.168457,626.000000 305.000000,626.000000 
z"/>
<path fill="#444446" opacity="1.000000" stroke="none" 
	d="
M264.000000,711.990967 
	C264.000000,705.159668 264.257843,698.812744 263.903259,692.500183 
	C263.690674,688.716431 264.804993,687.892639 268.516907,687.906494 
	C308.677490,688.056274 348.838867,687.993469 389.000000,688.009766 
	C393.143250,688.011414 398.686707,686.553589 401.063721,688.640076 
	C403.832642,691.070618 401.871277,696.747925 401.963287,701.009766 
	C402.103546,707.505798 401.744629,714.021118 402.097351,720.500977 
	C402.303406,724.286316 401.191895,725.107666 397.482025,725.093445 
	C358.154694,724.942688 318.826538,725.000000 279.498627,725.000000 
	C278.498749,725.000000 277.498657,725.014648 276.499054,724.997437 
	C272.522491,724.929016 267.240204,726.375854 264.908966,724.379700 
	C262.159210,722.025330 264.361115,716.577332 264.000000,711.990967 
z"/>
<path fill="#444446" opacity="1.000000" stroke="none" 
	d="
M345.000000,63.000000 
	C362.997467,63.000004 380.495819,63.088470 397.991669,62.920799 
	C401.250977,62.889561 402.156128,63.732906 402.081116,67.005722 
	C401.855896,76.832474 401.893311,86.669586 402.066895,96.498436 
	C402.116974,99.335030 401.302032,100.067413 398.488708,100.061722 
	C354.828522,99.973328 311.167999,99.973175 267.507812,100.061996 
	C264.689148,100.067726 263.883636,99.326157 263.933350,96.494965 
	C264.106049,86.666084 264.145142,76.828949 263.918427,67.002266 
	C263.842773,63.722610 264.761047,62.905045 268.011444,62.922802 
	C293.507019,63.062092 319.003662,63.000004 345.000000,63.000000 
z"/>
<path fill="#444446" opacity="1.000000" stroke="none" 
	d="
M322.000000,751.000000 
	C347.496399,751.000000 372.493469,751.089172 397.488464,750.903320 
	C401.214813,750.875671 402.218109,751.742065 402.100708,755.503662 
	C401.799255,765.159485 401.892426,774.832947 402.066650,784.495056 
	C402.117706,787.326660 401.310455,788.067688 398.492035,788.061951 
	C354.831848,787.973145 311.171326,787.973328 267.511139,788.061707 
	C264.697540,788.067444 263.883026,787.334595 263.933075,784.498291 
	C264.106659,774.669434 264.144165,764.832336 263.918884,755.005554 
	C263.843842,751.732483 264.749542,750.890503 268.008423,750.920898 
	C285.837646,751.086975 303.669220,751.000000 322.000000,751.000000 
z"/>
<path fill="#444446" opacity="1.000000" stroke="none" 
	d="
M301.000000,376.000000 
	C333.495392,376.000000 365.491150,376.070312 397.485687,375.905029 
	C401.204193,375.885834 402.219391,376.732697 402.101135,380.500610 
	C401.798157,390.156372 401.892914,399.829895 402.066376,409.492065 
	C402.117126,412.318939 401.318146,413.067993 398.495056,413.062225 
	C354.834869,412.973053 311.174347,412.973511 267.514160,413.061523 
	C264.705231,413.067200 263.883728,412.342224 263.932861,409.501312 
	C264.105774,399.505737 264.104187,389.503601 263.933655,379.507935 
	C263.885406,376.681488 264.677002,375.891693 267.505737,375.933624 
	C278.501740,376.096680 289.501587,376.000000 301.000000,376.000000 
z"/>
<path fill="#444446" opacity="1.000000" stroke="none" 
	d="
M350.000000,251.000000 
	C366.331055,251.000015 382.163177,251.096878 397.992279,250.920334 
	C401.253754,250.883972 402.155884,251.734985 402.080994,255.006409 
	C401.856049,264.833191 401.893188,274.670288 402.066956,284.499115 
	C402.117126,287.336792 401.300262,288.067383 398.488007,288.061676 
	C354.827820,287.973389 311.167328,287.973145 267.507141,288.062042 
	C264.687469,288.067780 263.883698,287.324463 263.933411,284.494293 
	C264.105988,274.665405 264.145386,264.828278 263.918335,255.001602 
	C263.842529,251.720566 264.763245,250.906967 268.012115,250.923141 
	C295.174164,251.058395 322.337250,251.000000 350.000000,251.000000 
z"/>
<path fill="#444446" opacity="1.000000" stroke="none" 
	d="
M283.000488,438.000000 
	C321.494965,438.000000 359.489777,438.059387 397.483704,437.906097 
	C401.197083,437.891144 402.220184,438.726166 402.101410,442.498535 
	C401.797363,452.154236 401.893341,461.827789 402.066223,471.489960 
	C402.116760,474.313568 401.323456,475.068207 398.497162,475.062408 
	C354.836945,474.972961 311.176422,474.973602 267.516205,475.061371 
	C264.710449,475.067017 263.883331,474.347534 263.932678,471.503387 
	C264.106140,461.507812 264.103821,451.505646 263.933807,441.509979 
	C263.885803,438.686707 264.664032,437.805176 267.505676,437.935913 
	C272.494385,438.165466 277.501282,438.000031 283.000488,438.000000 
z"/>
<path fill="#444446" opacity="1.000000" stroke="none" 
	d="
M297.000000,188.000000 
	C330.828552,188.000000 364.157410,188.067581 397.485168,187.905304 
	C401.202362,187.887222 402.219543,188.730988 402.101166,192.500046 
	C401.797913,202.155807 401.893066,211.829346 402.066345,221.491516 
	C402.117065,224.317505 401.319580,225.068054 398.495636,225.062271 
	C354.835419,224.973022 311.174927,224.973511 267.514709,225.061478 
	C264.706635,225.067139 263.883636,224.343658 263.932831,221.501892 
	C264.105896,211.506317 264.104095,201.504166 263.933716,191.508499 
	C263.885559,188.682999 264.674438,187.882339 267.505341,187.933365 
	C277.167511,188.107483 286.834717,188.000015 297.000000,188.000000 
z"/>
<path fill="#444446" opacity="1.000000" stroke="none" 
	d="
M402.000000,526.979919 
	C402.000000,538.000000 402.000000,538.000000 391.513184,538.000000 
	C350.518372,538.000000 309.523407,537.946228 268.529114,538.091675 
	C264.842224,538.104797 263.774658,537.313416 263.896851,533.514099 
	C264.207275,523.858582 264.104431,514.184692 263.934753,504.522217 
	C263.885498,501.717346 264.645538,500.930725 267.490723,500.936646 
	C311.151672,501.027618 354.812927,501.025940 398.473877,500.939392 
	C401.264679,500.933868 402.147644,501.624115 402.067963,504.487549 
	C401.864105,511.814301 401.999969,519.150513 402.000000,526.979919 
z"/>
<path fill="#444446" opacity="1.000000" stroke="none" 
	d="
M332.000000,313.000000 
	C354.330200,313.000000 376.160858,313.072021 397.990021,312.921967 
	C401.244232,312.899628 402.156769,313.727325 402.081390,317.003845 
	C401.855316,326.830566 401.893646,336.667694 402.066772,346.496552 
	C402.116669,349.330231 401.306793,350.067596 398.490601,350.061890 
	C354.830414,349.973267 311.169891,349.973267 267.509705,350.061859 
	C264.693970,350.067566 263.883270,349.330963 263.933228,346.496826 
	C264.106445,336.667969 264.144592,326.830841 263.918671,317.004120 
	C263.843353,313.728210 264.754700,312.898315 268.009674,312.921753 
	C289.172241,313.074127 310.336365,313.000000 332.000000,313.000000 
z"/>
<path fill="#444446" opacity="1.000000" stroke="none" 
	d="
M677.000000,377.000000 
	C687.498596,377.000031 697.498901,377.104584 707.494568,376.933411 
	C710.325012,376.884949 711.114502,377.682678 711.066345,380.508392 
	C710.895935,390.504059 710.894165,400.506226 711.067200,410.501801 
	C711.116394,413.343475 710.293518,414.067078 707.485352,414.061462 
	C663.491821,413.973724 619.498047,413.973236 575.504517,414.062225 
	C572.680786,414.067993 571.884216,413.317719 571.933655,410.491669 
	C572.105530,400.662720 572.146240,390.825592 571.918091,380.998932 
	C571.841797,377.712860 572.771545,376.912323 576.014648,376.924225 
	C609.509399,377.047516 643.004761,377.000000 677.000000,377.000000 
z"/>
<path fill="#444446" opacity="1.000000" stroke="none" 
	d="
M685.000000,440.000000 
	C692.998901,440.000092 700.499756,440.094696 707.995667,439.945587 
	C710.405457,439.897675 711.082947,440.609741 711.053711,443.009155 
	C710.927734,453.339447 710.832092,463.676239 711.081787,474.002045 
	C711.182739,478.181549 708.494141,476.967438 706.484436,476.969513 
	C666.990173,477.010437 627.495789,477.008057 588.001465,476.990204 
	C582.858215,476.987854 575.928833,478.842407 573.043274,476.252747 
	C569.754456,473.301178 572.195068,466.254059 572.036926,460.992371 
	C571.871765,455.498108 572.271423,449.976959 571.906616,444.502075 
	C571.654419,440.717926 572.801208,439.889618 576.515869,439.905823 
	C612.510071,440.062653 648.505127,440.000000 685.000000,440.000000 
z"/>
<path fill="#444446" opacity="1.000000" stroke="none" 
	d="
M593.000122,539.000000 
	C586.667603,538.999939 580.831909,538.886780 575.004211,539.054199 
	C572.591125,539.123474 571.917175,538.388977 571.946350,535.990295 
	C572.072205,525.659973 572.167847,515.323242 571.918274,504.997406 
	C571.817261,500.817322 574.506897,502.032593 576.516113,502.030518 
	C616.010437,501.989471 655.504761,501.991943 694.999146,502.009857 
	C700.142334,502.012177 707.072083,500.157867 709.957092,502.747589 
	C713.245361,505.699310 710.805176,512.746399 710.963135,518.008179 
	C711.128174,523.502441 710.728271,529.023682 711.093384,534.498535 
	C711.345886,538.283936 710.197021,539.109070 706.483643,539.093872 
	C668.822937,538.940063 631.161438,539.000000 593.000122,539.000000 
z"/>
<path fill="#444446" opacity="1.000000" stroke="none" 
	d="
M653.000000,602.000000 
	C627.170288,602.000000 601.839844,601.911987 576.511536,602.096619 
	C572.785278,602.123840 571.781860,601.258057 571.899231,597.496399 
	C572.200745,587.840576 572.107544,578.167053 571.933350,568.504944 
	C571.882324,565.673462 572.689331,564.932373 575.507874,564.937988 
	C619.501404,565.026611 663.495300,565.026489 707.488831,564.938293 
	C710.302429,564.932617 711.116943,565.665222 711.066895,568.501648 
	C710.893372,578.330505 710.855835,588.167664 711.081116,597.994446 
	C711.156128,601.267517 710.250671,602.109436 706.991638,602.079102 
	C689.162354,601.913025 671.330811,602.000000 653.000000,602.000000 
z"/>
<path fill="#444446" opacity="1.000000" stroke="none" 
	d="
M572.000000,652.980652 
	C572.000000,645.483826 572.249817,638.472229 571.900330,631.490662 
	C571.710022,627.689880 572.832764,626.894531 576.526001,626.907776 
	C617.353577,627.054321 658.181763,626.993896 699.009827,627.010010 
	C702.818787,627.011536 707.879211,625.694153 710.112122,627.608887 
	C712.756165,629.876160 710.861084,635.092102 710.954773,639.020325 
	C711.117554,645.848877 710.746277,652.697266 711.099609,659.511353 
	C711.296936,663.317444 710.160522,664.105469 706.471741,664.091919 
	C666.477478,663.944763 626.482483,664.000000 586.487671,664.000000 
	C585.154541,664.000000 583.821350,664.000000 582.488220,664.000000 
	C572.000000,664.000000 572.000000,664.000000 572.000000,652.980652 
z"/>
<path fill="#444446" opacity="1.000000" stroke="none" 
	d="
M711.000000,702.014160 
	C711.000000,709.176880 710.746582,715.856140 711.098083,722.503357 
	C711.298523,726.293030 710.184937,727.106812 706.479736,727.093079 
	C666.318604,726.944092 626.156799,727.007080 585.995117,726.990051 
	C581.519043,726.988098 575.522827,728.574463 572.965210,726.321289 
	C570.001831,723.710693 572.162903,717.580566 572.040588,712.985046 
	C571.876587,706.823547 572.263489,700.638916 571.903015,694.494141 
	C571.680176,690.696228 572.824280,689.893433 576.523315,689.907349 
	C616.184448,690.056274 655.846375,690.000000 695.508057,690.000000 
	C696.841248,690.000000 698.174377,690.000000 699.507568,690.000000 
	C711.000000,690.000000 711.000000,690.000000 711.000000,702.014160 
z"/>
<path fill="#444446" opacity="1.000000" stroke="none" 
	d="
M657.000000,789.000000 
	C629.837158,789.000000 603.173706,788.916138 576.512085,789.096252 
	C572.787537,789.121399 571.781616,788.259949 571.899231,784.497009 
	C572.200989,774.841187 572.107483,765.167603 571.933350,755.505493 
	C571.882385,752.674866 572.687927,751.932251 575.507324,751.937927 
	C619.500854,752.026611 663.494751,752.026489 707.488281,751.938354 
	C710.300964,751.932739 711.115906,752.663940 711.066956,755.501099 
	C710.894653,765.496704 710.895447,775.498840 711.066589,785.494507 
	C711.115051,788.324707 710.314514,789.087341 707.492371,789.064941 
	C690.829102,788.932983 674.164307,789.000000 657.000000,789.000000 
z"/>
<path fill="#444446" opacity="1.000000" stroke="none" 
	d="
M863.000000,502.000000 
	C874.498413,502.000031 885.498230,502.096710 896.494263,501.933624 
	C899.322998,501.891663 900.114624,502.681458 900.066345,505.507935 
	C899.895813,515.503601 899.894165,525.505737 900.067139,535.501343 
	C900.116272,538.342224 899.294922,539.067200 896.485901,539.061523 
	C852.825684,538.973511 809.165161,538.973022 765.504944,539.062195 
	C762.682007,539.067932 761.884033,538.318970 761.933533,535.492188 
	C762.105591,525.663269 762.145996,515.826111 761.918091,505.999451 
	C761.841858,502.714294 762.770020,501.911438 766.014160,501.924103 
	C798.175720,502.049530 830.337952,502.000000 863.000000,502.000000 
z"/>
<path fill="#444446" opacity="1.000000" stroke="none" 
	d="
M769.068604,602.000000 
	C762.000183,601.999390 762.000122,601.999390 762.000000,595.565613 
	C761.999939,586.566467 762.101868,577.565552 761.938599,568.569336 
	C761.888916,565.834534 762.524048,564.926697 765.443726,564.933167 
	C809.106018,565.029907 852.768555,565.023987 896.430847,564.942810 
	C899.158203,564.937683 900.127563,565.515503 900.071472,568.444153 
	C899.883118,578.272949 899.784119,588.114624 900.107605,597.936401 
	C900.234741,601.797791 898.715759,602.073486 895.548218,602.064148 
	C860.885193,601.961853 826.221741,602.000000 791.558411,602.000000 
	C784.225769,602.000000 776.893127,602.000000 769.068604,602.000000 
z"/>
<path fill="#444446" opacity="1.000000" stroke="none" 
	d="
M762.000000,636.038818 
	C762.000000,627.000000 762.000000,627.000000 770.466553,627.000000 
	C812.128479,627.000000 853.790649,627.050903 895.452087,626.911133 
	C899.100342,626.898865 900.232849,627.628296 900.105713,631.467346 
	C899.785950,641.122375 899.898865,650.796692 900.063843,660.459473 
	C900.111206,663.236450 899.401489,664.070862 896.527588,664.064758 
	C852.866089,663.971497 809.204224,663.974792 765.542725,664.059326 
	C762.776550,664.064636 761.858154,663.417786 761.930603,660.529114 
	C762.131165,652.535095 762.000000,644.532654 762.000000,636.038818 
z"/>
<path fill="#444446" opacity="1.000000" stroke="none" 
	d="
M792.000000,727.000000 
	C782.834595,727.000000 774.166626,726.882935 765.505127,727.066711 
	C762.672485,727.126770 761.885620,726.316101 761.933716,723.491089 
	C762.104065,713.495422 762.106018,703.493286 761.932800,693.497681 
	C761.883606,690.655212 762.707581,689.932922 765.515076,689.938538 
	C809.175293,690.026489 852.835815,690.026978 896.496033,689.937683 
	C899.320557,689.931946 900.117004,690.683411 900.066345,693.508911 
	C899.893066,703.171082 899.797852,712.844604 900.101257,722.500366 
	C900.219788,726.270264 899.201050,727.111877 895.484863,727.094543 
	C861.157166,726.934387 826.828430,727.000000 792.000000,727.000000 
z"/>
<path fill="#444446" opacity="1.000000" stroke="none" 
	d="
M767.111206,789.000000 
	C763.129822,789.593018 761.734436,788.604309 761.885010,784.606934 
	C762.242371,775.121155 762.114563,765.610474 761.933960,756.114685 
	C761.875671,753.049622 762.429565,751.900574 765.898743,751.911377 
	C809.228333,752.046753 852.558533,752.029175 895.888367,751.937866 
	C898.949768,751.931396 900.191223,752.423340 900.093750,755.903015 
	C899.823303,765.561401 899.799622,775.238464 900.100525,784.895081 
	C900.217529,788.649780 898.848328,789.080017 895.589844,789.071777 
	C852.926697,788.963806 810.263184,789.000000 767.111206,789.000000 
z"/>
<path fill="#444446" opacity="1.000000" stroke="none" 
	d="
M900.000000,384.067139 
	C900.000000,393.059601 899.906982,401.560303 900.053528,410.056885 
	C900.100891,412.805847 899.843323,414.101013 896.430176,414.090302 
	C852.768555,413.953339 809.106262,413.970154 765.444397,414.066803 
	C762.526001,414.073273 761.893921,413.166718 761.938599,410.431488 
	C762.096375,400.768433 762.223999,391.093475 761.890564,381.439331 
	C761.755859,377.540283 762.986572,376.904419 766.576294,376.915558 
	C808.904785,377.046967 851.233765,377.000000 893.562622,377.000031 
	C899.999390,377.000061 899.999390,377.000153 900.000000,384.067139 
z"/>
<path fill="#444446" opacity="1.000000" stroke="none" 
	d="
M900.000000,465.979919 
	C900.000000,477.000000 900.000000,477.000000 889.513184,477.000000 
	C848.518372,477.000000 807.523438,476.946198 766.529114,477.091736 
	C762.842163,477.104797 761.774658,476.313416 761.896729,472.514069 
	C762.207153,462.858612 762.104492,453.184662 761.934753,443.522217 
	C761.885498,440.717316 762.645630,439.930756 765.490723,439.936707 
	C809.151672,440.027649 852.812927,440.025940 896.473877,439.939423 
	C899.264648,439.933899 900.147644,440.624084 900.067993,443.487549 
	C899.864075,450.814301 900.000000,458.150482 900.000000,465.979919 
z"/>
</svg>